# xmcd
#
# Track frame offsets: 
#        150
#        15822
#        30321
#        46384
#        66448
#        82224
#        101665
#        122739
#        135504
#        154924
#        172542
#        186029
#        206185
#        221941
#        234747
#        251036
#
# Disc length: 3562 seconds
#
# Revision: 2
# Processed by: cddbd v1.5.2PL0 Copyright (c) Steve Scherf et al.
# Submitted via: ExactAudioCopy v1.0b1
#
DISCID=dd0de810
DTITLE=Lauku muzikanti - Šeit un šonakt
DYEAR=1997
DGENRE=Country
TTITLE0=Kurp gan aiztrauc…
TTITLE1=Kad dziedu tev
TTITLE2=Nāc reizi vēl…
TTITLE3=Viena diena un nakts
TTITLE4=Šeit un šonakt
TTITLE5=Ir jau diezgan
TTITLE6=Svešinieks pilsētā
TTITLE7=Hei, mazā
TTITLE8=Tai vasarā
TTITLE9=Šovakar rozes…
TTITLE10=Šā vai tā
TTITLE11=Nāk nakts
TTITLE12=Viss ir īsts
TTITLE13=Vecie draugi
TTITLE14=Baltā roze
TTITLE15=Vai tas ir bijis jau
EXTD=
EXTT0=
EXTT1=
EXTT2=
EXTT3=
EXTT4=
EXTT5=
EXTT6=
EXTT7=
EXTT8=
EXTT9=
EXTT10=
EXTT11=
EXTT12=
EXTT13=
EXTT14=
EXTT15=
PLAYORDER=
